#N canvas 0 23 450 300 10;
#X floatatom 37 175 5 0 0 2 f0 - -, f 5;
#X floatatom 80 175 4 0 0 2 f1 - -, f 4;
#X floatatom 111 175 4 0 0 2 beat - -, f 4;
#X floatatom 157 175 4 0 0 2 f2 - -, f 4;
#X floatatom 188 175 4 0 0 2 beat - -, f 4;
#X floatatom 235 175 4 0 0 2 f3 - -, f 4;
#X floatatom 266 175 4 0 0 2 beat - -, f 4;
#X floatatom 314 175 4 0 0 2 f4 - -, f 4;
#X floatatom 345 175 4 0 0 2 beat - -, f 4;
#X obj 80 193 vsl 12 32 0 1 0 0 empty empty empty 0 -9 0 10 -204786
-1 -1 0 1;
#X obj 37 193 vsl 12 32 0 1 0 0 empty empty empty 0 -9 0 10 -204786
-1 -1 0 1;
#X obj 112 193 vsl 12 32 0 1 0 0 empty empty empty 0 -9 0 10 -262130
-1 -1 0 1;
#X obj 157 193 vsl 12 32 0 1 0 0 empty empty empty 0 -9 0 10 -204786
-1 -1 0 1;
#X obj 188 193 vsl 12 32 0 1 0 0 empty empty empty 0 -9 0 10 -262130
-1 -1 0 1;
#X obj 235 193 vsl 12 32 0 1 0 0 empty empty empty 0 -9 0 10 -204786
-1 -1 0 1;
#X obj 266 193 vsl 12 32 0 1 0 0 empty empty empty 0 -9 0 10 -262130
-1 -1 0 1;
#X obj 314 193 vsl 12 32 0 1 0 0 empty empty empty 0 -9 0 10 -204786
-1 -1 0 1;
#X obj 346 193 vsl 12 32 0 1 0 0 empty empty empty 0 -9 0 10 -262130
-1 -1 0 1;
#X obj 386 193 vsl 12 32 0.01 1 1 0 empty empty Vol 0 -9 0 10 -4034
-1 -1 0 1;
#X obj 59 282 outlet~;
#X obj 296 283 outlet~;
#X obj 31 138 cnv 15 1 1 empty empty Fundamental_+_4_Risset_Tones 70
12 0 14 -262144 -66577 0;
#X obj 7 2 inlet;
#X text 30 126 f0;
#X text 46 126 f1;
#X text 62 126 beat;
#X obj 22 18 inlet;
#X obj 43 2 inlet;
#X obj 58 18 inlet;
#X obj 79 2 inlet;
#X obj 94 18 inlet;
#X obj 115 2 inlet;
#X obj 130 18 inlet;
#X obj 151 2 inlet;
#X obj 191 2 inlet;
#X obj 206 18 inlet;
#X obj 227 2 inlet;
#X obj 242 18 inlet;
#X obj 263 2 inlet;
#X obj 278 18 inlet;
#X obj 299 2 inlet;
#X obj 314 18 inlet;
#X obj 335 2 inlet;
#X obj 360 18 inlet;
#X text 102 126 beat;
#X text 88 126 f2;
#X text 142 126 beat;
#X text 128 126 f3;
#X text 182 126 beat;
#X text 168 126 f4;
#X text 209 126 vol0;
#X text 252 126 vb1;
#X text 236 126 v1;
#X text 273 126 v2;
#X text 289 126 vb2;
#X text 310 126 v3;
#X text 328 126 vb3;
#X text 351 126 v4;
#X text 367 126 vb4;
#X text 388 126 VOL;
#X obj 59 256 beatsF0Plus4 440 660 10 750 2 860 0.1 900 0.05;
#X obj 3 39 r \$0-f0-r;
#X obj 3 58 r \$0-f0v-r;
#X obj 34 73 r \$0-f1-r;
#X obj 34 92 r \$0-f1v-r;
#X obj 78 39 r \$0-b1-r;
#X obj 78 58 r \$0-b1v-r;
#X obj 126 73 r \$0-f2-r;
#X obj 126 92 r \$0-f2v-r;
#X obj 170 39 r \$0-b2-r;
#X obj 170 58 r \$0-b2v-r;
#X obj 207 73 r \$0-f3-r;
#X obj 207 92 r \$0-f3v-r;
#X obj 251 39 r \$0-b3-r;
#X obj 251 58 r \$0-b3v-r;
#X obj 285 73 r \$0-f4-r;
#X obj 285 92 r \$0-f4v-r;
#X obj 329 39 r \$0-b4-r;
#X obj 329 58 r \$0-b4v-r;
#X obj 358 92 r \$0-vol;
#X connect 0 0 60 0;
#X connect 1 0 60 1;
#X connect 2 0 60 2;
#X connect 3 0 60 3;
#X connect 4 0 60 4;
#X connect 5 0 60 5;
#X connect 6 0 60 6;
#X connect 7 0 60 7;
#X connect 8 0 60 8;
#X connect 9 0 60 10;
#X connect 10 0 60 9;
#X connect 11 0 60 11;
#X connect 12 0 60 12;
#X connect 13 0 60 13;
#X connect 14 0 60 14;
#X connect 15 0 60 15;
#X connect 16 0 60 16;
#X connect 17 0 60 17;
#X connect 18 0 60 18;
#X connect 22 0 0 0;
#X connect 26 0 1 0;
#X connect 27 0 2 0;
#X connect 28 0 3 0;
#X connect 29 0 4 0;
#X connect 30 0 5 0;
#X connect 31 0 6 0;
#X connect 32 0 7 0;
#X connect 33 0 8 0;
#X connect 34 0 10 0;
#X connect 35 0 9 0;
#X connect 36 0 11 0;
#X connect 37 0 12 0;
#X connect 38 0 13 0;
#X connect 39 0 14 0;
#X connect 40 0 15 0;
#X connect 41 0 16 0;
#X connect 42 0 17 0;
#X connect 43 0 18 0;
#X connect 60 0 19 0;
#X connect 60 1 20 0;
#X connect 61 0 0 0;
#X connect 62 0 10 0;
#X connect 63 0 1 0;
#X connect 64 0 9 0;
#X connect 65 0 2 0;
#X connect 66 0 11 0;
#X connect 67 0 3 0;
#X connect 68 0 12 0;
#X connect 69 0 4 0;
#X connect 70 0 13 0;
#X connect 71 0 5 0;
#X connect 72 0 14 0;
#X connect 73 0 6 0;
#X connect 74 0 15 0;
#X connect 75 0 7 0;
#X connect 76 0 16 0;
#X connect 77 0 8 0;
#X connect 78 0 17 0;
#X connect 79 0 18 0;
#X coords 0 -1 1 1 380 110 2 30 126;
