#N canvas 656 23 710 621 10;
#X obj 161 450 osc~;
#X obj 62 451 osc~;
#X obj 111 451 osc~;
#X floatatom 111 426 5 0 0 0 - - -, f 5;
#X floatatom 161 425 5 0 0 0 - - -, f 5;
#X floatatom 209 426 5 0 0 0 - - -, f 5;
#X floatatom 268 426 5 0 0 0 - - -, f 5;
#X floatatom 62 426 5 0 0 0 - - -, f 5;
#X obj 209 451 osc~;
#X obj 268 450 osc~;
#X obj 163 475 *~;
#X obj 212 476 *~;
#X obj 212 228 vsl 15 64 0 1 0 0 empty empty empty 0 -9 0 10 -262144
-1 -1 0 1;
#X obj 163 475 *~;
#X obj 115 476 *~;
#X obj 163 227 vsl 15 64 0 1 0 0 empty empty empty 0 -9 0 10 -262144
-1 -1 0 1;
#X obj 67 476 *~;
#X obj 67 229 vsl 15 64 0 1 0 0 empty empty empty 0 -9 0 10 -262144
-1 -1 0 1;
#X obj 272 475 *~;
#X obj 272 228 vsl 15 64 0 1 0 0 empty empty empty 0 -9 0 10 -262144
-1 -1 0 1;
#X obj 115 229 vsl 15 64 0 1 0 0 empty empty empty 0 -9 0 10 -262144
-1 -1 0 1;
#X obj 62 163 line 20;
#X obj 113 163 line 20;
#X obj 161 162 line 20;
#X obj 210 162 line 20;
#X obj 266 162 line 20;
#X obj 172 534 *~;
#X obj 325 519 hsl 128 15 0 1 0 0 empty empty empty -2 -8 0 10 -262144
-1 -1 6350 1;
#X obj 15 23 inlet;
#X obj 74 23 inlet;
#X obj 132 23 inlet;
#X obj 218 23 inlet;
#X obj 275 23 inlet;
#X obj 15 62 s f0-\$0;
#X obj 47 346 r f0-\$0;
#X obj 74 62 s f1-\$0;
#X obj 132 62 s f1-beat-\$0;
#X obj 148 346 r f1-beat-\$0;
#X obj 119 398 -;
#X obj 139 375 * 0.5;
#X obj 156 398 +;
#X obj 227 397 -;
#X obj 247 374 * 0.5;
#X obj 264 397 +;
#X obj 256 345 r f2-beat-\$0;
#X obj 218 62 s f2-\$0;
#X obj 275 62 s f2-beat-\$0;
#X obj 139 326 r f1-\$0;
#X obj 246 327 r f2-\$0;
#X obj 37 43 f \$1;
#X obj 94 43 f \$2;
#X obj 154 43 f \$3;
#X obj 232 43 f \$4;
#X obj 287 43 f \$5;
#X obj 83 5 loadbang;
#X obj 588 82 inlet;
#X obj 592 99 inlet;
#X obj 596 114 inlet;
#X obj 601 131 inlet;
#X obj 606 148 inlet;
#X obj 111 563 outlet~;
#X obj 207 563 outlet~;
#X obj 667 472 inlet;
#X obj 355 23 inlet;
#X obj 406 23 inlet;
#X obj 486 23 inlet;
#X obj 536 23 inlet;
#X obj 488 226 vsl 15 64 0 1 0 0 empty empty empty 0 -9 0 10 -262144
-1 -1 0 1;
#X obj 428 227 vsl 15 64 0 1 0 0 empty empty empty 0 -9 0 10 -262144
-1 -1 0 1;
#X obj 331 227 vsl 15 64 0 1 0 0 empty empty empty 0 -9 0 10 -262144
-1 -1 0 1;
#X obj 379 227 vsl 15 64 0 1 0 0 empty empty empty 0 -9 0 10 -262144
-1 -1 0 1;
#X obj 355 62 s f3-\$0;
#X obj 406 62 s f3-beat-\$0;
#X obj 486 62 s f4-\$0;
#X obj 536 62 s f4-beat-\$0;
#X obj 367 43 f \$6;
#X obj 418 43 f \$7;
#X obj 498 43 f \$8;
#X obj 548 43 f \$9;
#X obj 632 80 f \$10;
#X obj 636 99 f \$11;
#X obj 639 115 f \$12;
#X obj 643 133 f \$13;
#X obj 644 152 f \$14;
#X obj 609 166 inlet;
#X obj 615 183 inlet;
#X obj 625 202 inlet;
#X obj 631 225 inlet;
#X obj 651 172 f \$15;
#X obj 661 191 f \$16;
#X obj 656 213 f \$17;
#X obj 653 240 f \$18;
#X obj 377 449 osc~;
#X obj 327 450 osc~;
#X floatatom 327 425 5 0 0 0 - - -, f 5;
#X floatatom 377 424 5 0 0 0 - - -, f 5;
#X floatatom 425 425 5 0 0 0 - - -, f 5;
#X floatatom 484 425 5 0 0 0 - - -, f 5;
#X obj 425 450 osc~;
#X obj 484 449 osc~;
#X obj 379 474 *~;
#X obj 428 475 *~;
#X obj 379 474 *~;
#X obj 331 475 *~;
#X obj 488 474 *~;
#X obj 335 397 -;
#X obj 355 374 * 0.5;
#X obj 372 397 +;
#X obj 443 396 -;
#X obj 463 373 * 0.5;
#X obj 480 396 +;
#X obj 324 162 line 20;
#X obj 376 162 line 20;
#X obj 429 162 line 20;
#X obj 488 162 line 20;
#X obj 356 327 r f3-\$0;
#X obj 364 345 r f3-beat-\$0;
#X obj 472 344 r f4-beat-\$0;
#X obj 67 300 * 0.3;
#X obj 115 300 * 0.3;
#X obj 163 300 * 0.3;
#X obj 212 300 * 0.3;
#X obj 272 300 * 0.3;
#X obj 331 300 * 0.3;
#X obj 379 300 * 0.3;
#X obj 428 300 * 0.3;
#X obj 488 300 * 0.3;
#X msg 61 132 \$1 1000;
#X msg 112 132 \$1 1000;
#X msg 161 132 \$1 1000;
#X msg 210 132 \$1 1000;
#X msg 266 132 \$1 1000;
#X msg 324 132 \$1 1000;
#X msg 376 132 \$1 1000;
#X msg 429 132 \$1 1000;
#X msg 488 132 \$1 1000;
#X obj 461 326 r f4-\$0;
#X obj 444 346 bng 15 250 50 0 empty empty empty 17 7 0 10 -262144
-1 -1;
#X obj 339 343 bng 15 250 50 0 empty empty empty 17 7 0 10 -262144
-1 -1;
#X obj 227 342 bng 15 250 50 0 empty empty empty 17 7 0 10 -262144
-1 -1;
#X obj 121 341 bng 15 250 50 0 empty empty empty 17 7 0 10 -262144
-1 -1;
#X obj 248 3 t b b b b b b b b b b b, f 73;
#X obj 461 555 line 20;
#X msg 461 534 \$1 1000;
#X obj 661 490 f \$19;
#X connect 0 0 10 1;
#X connect 1 0 16 1;
#X connect 2 0 14 1;
#X connect 3 0 2 0;
#X connect 4 0 0 0;
#X connect 5 0 8 0;
#X connect 6 0 9 0;
#X connect 7 0 1 0;
#X connect 8 0 11 1;
#X connect 9 0 18 1;
#X connect 10 0 26 0;
#X connect 11 0 26 0;
#X connect 12 0 121 0;
#X connect 14 0 26 0;
#X connect 15 0 120 0;
#X connect 16 0 26 0;
#X connect 17 0 118 0;
#X connect 18 0 26 0;
#X connect 19 0 122 0;
#X connect 20 0 119 0;
#X connect 21 0 17 0;
#X connect 22 0 20 0;
#X connect 23 0 15 0;
#X connect 24 0 12 0;
#X connect 25 0 19 0;
#X connect 26 0 60 0;
#X connect 26 0 61 0;
#X connect 27 0 26 1;
#X connect 28 0 33 0;
#X connect 29 0 35 0;
#X connect 30 0 36 0;
#X connect 31 0 45 0;
#X connect 32 0 46 0;
#X connect 34 0 7 0;
#X connect 37 0 39 0;
#X connect 37 0 140 0;
#X connect 38 0 3 0;
#X connect 39 0 38 1;
#X connect 39 0 40 1;
#X connect 40 0 4 0;
#X connect 41 0 5 0;
#X connect 42 0 41 1;
#X connect 42 0 43 1;
#X connect 43 0 6 0;
#X connect 44 0 42 0;
#X connect 44 0 139 0;
#X connect 47 0 38 0;
#X connect 47 0 40 0;
#X connect 48 0 41 0;
#X connect 48 0 43 0;
#X connect 49 0 33 0;
#X connect 50 0 35 0;
#X connect 51 0 36 0;
#X connect 52 0 45 0;
#X connect 53 0 46 0;
#X connect 54 0 141 0;
#X connect 55 0 127 0;
#X connect 56 0 128 0;
#X connect 57 0 129 0;
#X connect 58 0 130 0;
#X connect 59 0 131 0;
#X connect 62 0 143 0;
#X connect 63 0 71 0;
#X connect 64 0 72 0;
#X connect 65 0 73 0;
#X connect 66 0 74 0;
#X connect 67 0 126 0;
#X connect 68 0 125 0;
#X connect 69 0 123 0;
#X connect 70 0 124 0;
#X connect 75 0 71 0;
#X connect 76 0 72 0;
#X connect 77 0 73 0;
#X connect 78 0 74 0;
#X connect 79 0 127 0;
#X connect 80 0 128 0;
#X connect 81 0 129 0;
#X connect 82 0 130 0;
#X connect 83 0 131 0;
#X connect 84 0 132 0;
#X connect 85 0 133 0;
#X connect 86 0 134 0;
#X connect 87 0 135 0;
#X connect 88 0 132 0;
#X connect 89 0 133 0;
#X connect 90 0 134 0;
#X connect 91 0 135 0;
#X connect 92 0 100 1;
#X connect 93 0 103 1;
#X connect 94 0 93 0;
#X connect 95 0 92 0;
#X connect 96 0 98 0;
#X connect 97 0 99 0;
#X connect 98 0 101 1;
#X connect 99 0 104 1;
#X connect 100 0 26 0;
#X connect 101 0 26 0;
#X connect 103 0 26 0;
#X connect 104 0 26 0;
#X connect 105 0 94 0;
#X connect 106 0 105 1;
#X connect 106 0 107 1;
#X connect 107 0 95 0;
#X connect 108 0 96 0;
#X connect 109 0 108 1;
#X connect 109 0 110 1;
#X connect 110 0 97 0;
#X connect 111 0 69 0;
#X connect 112 0 70 0;
#X connect 113 0 68 0;
#X connect 114 0 67 0;
#X connect 115 0 105 0;
#X connect 115 0 107 0;
#X connect 116 0 106 0;
#X connect 116 0 138 0;
#X connect 117 0 109 0;
#X connect 117 0 137 0;
#X connect 118 0 16 0;
#X connect 119 0 14 0;
#X connect 120 0 10 0;
#X connect 121 0 11 0;
#X connect 122 0 18 0;
#X connect 123 0 103 0;
#X connect 124 0 100 0;
#X connect 125 0 101 0;
#X connect 126 0 104 0;
#X connect 127 0 21 0;
#X connect 128 0 22 0;
#X connect 129 0 23 0;
#X connect 130 0 24 0;
#X connect 131 0 25 0;
#X connect 132 0 111 0;
#X connect 133 0 112 0;
#X connect 134 0 113 0;
#X connect 135 0 114 0;
#X connect 136 0 108 0;
#X connect 136 0 110 0;
#X connect 137 0 108 0;
#X connect 137 0 110 0;
#X connect 138 0 107 0;
#X connect 138 0 105 0;
#X connect 139 0 43 0;
#X connect 139 0 41 0;
#X connect 140 0 38 0;
#X connect 140 0 40 0;
#X connect 141 0 49 0;
#X connect 141 1 50 0;
#X connect 141 2 51 0;
#X connect 141 3 52 0;
#X connect 141 4 53 0;
#X connect 141 5 75 0;
#X connect 141 6 76 0;
#X connect 141 7 77 0;
#X connect 141 8 78 0;
#X connect 141 9 79 0;
#X connect 141 9 80 0;
#X connect 141 9 81 0;
#X connect 141 9 82 0;
#X connect 141 9 83 0;
#X connect 141 9 88 0;
#X connect 141 9 89 0;
#X connect 141 9 90 0;
#X connect 141 9 91 0;
#X connect 141 10 91 0;
#X connect 141 10 144 0;
#X connect 142 0 27 0;
#X connect 143 0 142 0;
#X connect 144 0 143 0;
