#N canvas 375 38 893 437 10;
#X text 172 279 number of partials;
#X obj 118 237 + 1;
#X obj 130 281 sel \$1;
#X msg 44 215 stop;
#X msg 293 201 obj \$1 10 osc~ \$2;
#X obj 82 90 loadbang;
#X msg 38 316 clear;
#X obj 293 171 pack f f;
#X obj 82 236 f 1;
#X obj 82 215 metro 50;
#X obj 338 140 * \$2;
#X obj 8 5 cnv 15 400 26 empty empty blitSaw_-_Band-Limited_Sawtooth
20 12 0 14 -233017 -66577 0;
#X obj 259 96 t f f f f;
#X obj 424 130 * 60;
#X obj 293 129 * 60;
#X obj 424 171 pack f f;
#X msg 424 201 obj \$1 30 *~ \$2;
#X obj 475 150 /;
#X obj 463 128 swap 1;
#X obj 424 96 t f f f;
#X msg 543 201 connect \$1 0 \$2 0;
#X obj 543 171 pack f f;
#X obj 543 96 t f f f;
#X msg 674 201 connect \$1 0 0 0;
#X text 318 231 [osc~]...;
#X text 438 231 [*~]...;
#X text 519 230 connect [osc]~ to [*~]...;
#X text 675 230 and connect [*~] to the [outlet~];
#X obj 551 127 * 2;
#X obj 582 132 * 2;
#X obj 674 149 * 2;
#X text 26 34 Creates dynamically a sawtooth wave with \$1 partials
and fundamental frequency $f2. Everything is created inside [pd subpatch]
\; USAGE: [blitSaw n_partials fundamental_f];
#X obj 610 315 *~ 1;
#X obj 671 314 inlet;
#X obj 610 342 outlet~;
#N canvas 807 301 374 260 reset-subpatch 0;
#X msg 133 117 key 1 8 0;
#X obj 133 82 t b b;
#X msg 145 102 find +*~ 1;
#X obj 50 111 f;
#X obj 81 111 + 1;
#X obj 50 87 metro 2;
#X obj 50 130 sel 1000;
#X msg 214 117 key 1 8 0;
#X obj 214 82 t b b;
#X msg 10 82 stop;
#X obj 50 160 t b b;
#X msg 226 102 find +osc~ 1;
#X obj 50 18 inlet;
#X obj 50 222 outlet;
#X text 104 18 Deleting all osc~ and *~ objects;
#X text 137 187 (brute-force... we try to \; erase 1000 instances of
osc~ and *~);
#X obj 166 145 s pd-subpatch-\$0;
#X connect 0 0 16 0;
#X connect 1 0 0 0;
#X connect 1 1 2 0;
#X connect 3 0 4 0;
#X connect 3 0 6 0;
#X connect 3 0 1 0;
#X connect 3 0 8 0;
#X connect 4 0 3 1;
#X connect 5 0 3 0;
#X connect 6 0 10 0;
#X connect 7 0 16 0;
#X connect 8 0 7 0;
#X connect 8 1 11 0;
#X connect 9 0 5 0;
#X connect 10 0 13 0;
#X connect 10 1 9 0;
#X connect 12 0 5 0;
#X restore 82 150 pd reset-subpatch;
#X obj 551 147 - 1;
#X text 25 291 If we wanted \; to clear all;
#X text 30 123 First we leave just the [outlet~] \; in our subpatch:
;
#X text 30 191 Now we create our objects:;
#N canvas 36 397 509 300 subpatch-\$0 0;
#X obj 129 215 outlet~;
#X restore 610 280 pd subpatch-\$0;
#X obj 293 346 s pd-subpatch-\$0;
#X connect 1 0 8 1;
#X connect 2 0 3 0;
#X connect 3 0 9 0;
#X connect 4 0 41 0;
#X connect 5 0 35 0;
#X connect 6 0 41 0;
#X connect 7 0 4 0;
#X connect 8 0 1 0;
#X connect 8 0 12 0;
#X connect 9 0 8 0;
#X connect 10 0 7 1;
#X connect 12 0 2 0;
#X connect 12 1 19 0;
#X connect 12 2 14 0;
#X connect 12 3 10 0;
#X connect 13 0 15 0;
#X connect 14 0 7 0;
#X connect 15 0 16 0;
#X connect 16 0 41 0;
#X connect 17 0 15 1;
#X connect 18 0 17 0;
#X connect 18 1 17 1;
#X connect 19 0 22 0;
#X connect 19 1 13 0;
#X connect 19 2 18 0;
#X connect 20 0 41 0;
#X connect 21 0 20 0;
#X connect 22 0 30 0;
#X connect 22 1 28 0;
#X connect 22 2 29 0;
#X connect 23 0 41 0;
#X connect 28 0 36 0;
#X connect 29 0 21 1;
#X connect 30 0 23 0;
#X connect 32 0 34 0;
#X connect 33 0 32 1;
#X connect 35 0 9 0;
#X connect 36 0 21 0;
#X connect 40 0 32 0;
#X coords 0 0 1 1 85 60 0;
